<svg width="25" height="25" viewBox="0 0 25 25" fill="none" xmlns="http://www.w3.org/2000/svg">
<path d="M16.7969 10.1562C15.0245 10.1562 13.4083 10.8769 12.2003 12.1944C12.6656 12.5222 13.0909 12.9034 13.4675 13.3301C14.8453 14.8864 15.6096 17.0614 15.6244 19.4606C16.0136 19.5065 16.4051 19.5301 16.7969 19.5312C19.9614 19.5312 22.7057 18.1456 23.4352 17.7435C23.39 15.5972 22.6984 13.6663 21.4763 12.2856C20.2607 10.9125 18.5987 10.1562 16.7969 10.1562Z" fill="#397EA5"/>
<path d="M16.7969 9.375C18.5228 9.375 19.9219 7.97589 19.9219 6.25C19.9219 4.52411 18.5228 3.125 16.7969 3.125C15.071 3.125 13.6719 4.52411 13.6719 6.25C13.6719 7.97589 15.071 9.375 16.7969 9.375Z" fill="#397EA5"/>
<path d="M8.20322 11.7188C6.40146 11.7188 4.73945 12.475 3.52388 13.8481C2.30356 15.2265 1.61226 17.1541 1.56519 19.2964C2.35361 19.6979 5.30366 21.0938 8.20322 21.0938C11.3606 21.0938 14.1107 19.7076 14.8415 19.3057C14.7962 17.1596 14.1046 15.2285 12.8826 13.8481C11.667 12.475 10.005 11.7188 8.20322 11.7188Z" fill="#397EA5"/>
<path d="M8.20312 10.9375C9.92902 10.9375 11.3281 9.53839 11.3281 7.8125C11.3281 6.08661 9.92902 4.6875 8.20312 4.6875C6.47724 4.6875 5.07812 6.08661 5.07812 7.8125C5.07812 9.53839 6.47724 10.9375 8.20312 10.9375Z" fill="#397EA5"/>
</svg>
