<svg width="23" height="19" viewBox="0 0 23 19" fill="none" xmlns="http://www.w3.org/2000/svg">
<path d="M15.7969 7.15625C14.0245 7.15625 12.4083 7.8769 11.2003 9.19443C11.6656 9.52222 12.0909 9.90337 12.4675 10.3301C13.8453 11.8864 14.6096 14.0614 14.6244 16.4606C15.0136 16.5065 15.4051 16.5301 15.7969 16.5312C18.9614 16.5312 21.7057 15.1456 22.4352 14.7435C22.39 12.5972 21.6984 10.6663 20.4763 9.2856C19.2607 7.91245 17.5987 7.15625 15.7969 7.15625Z" fill="white"/>
<path d="M15.7969 6.375C17.5228 6.375 18.9219 4.97589 18.9219 3.25C18.9219 1.52411 17.5228 0.125 15.7969 0.125C14.071 0.125 12.6719 1.52411 12.6719 3.25C12.6719 4.97589 14.071 6.375 15.7969 6.375Z" fill="white"/>
<path d="M7.20322 8.71875C5.40146 8.71875 3.73945 9.47495 2.52388 10.8481C1.30356 12.2265 0.612256 14.1541 0.565186 16.2964C1.35361 16.6979 4.30366 18.0938 7.20322 18.0938C10.3606 18.0938 13.1107 16.7076 13.8415 16.3057C13.7962 14.1596 13.1046 12.2285 11.8826 10.8481C10.667 9.47495 9.00498 8.71875 7.20322 8.71875Z" fill="white"/>
<path d="M7.20312 7.9375C8.92902 7.9375 10.3281 6.53839 10.3281 4.8125C10.3281 3.08661 8.92902 1.6875 7.20312 1.6875C5.47724 1.6875 4.07812 3.08661 4.07812 4.8125C4.07812 6.53839 5.47724 7.9375 7.20312 7.9375Z" fill="white"/>
</svg>
