<svg width="75" height="73" viewBox="0 0 75 73" fill="none" xmlns="http://www.w3.org/2000/svg">
<path d="M35.1562 54.75C35.1562 57.4571 34.3315 60.1035 32.7863 62.3544C31.2411 64.6053 29.0448 66.3596 26.4752 67.3956C23.9057 68.4316 21.0782 68.7026 18.3503 68.1745C15.6224 67.6464 13.1167 66.3427 11.1501 64.4285C9.1834 62.5143 7.84407 60.0754 7.30147 57.4203C6.75887 54.7652 7.03735 52.0131 8.10171 49.512C9.16606 47.011 10.9685 44.8733 13.2811 43.3693C15.5936 41.8653 18.3125 41.0625 21.0938 41.0625C24.8221 41.0666 28.3965 42.51 31.0328 45.076C33.6691 47.642 35.1521 51.1211 35.1562 54.75ZM29.2969 53.6094H22.2656V46.7656C22.2656 46.4631 22.1422 46.173 21.9224 45.9591C21.7026 45.7452 21.4046 45.625 21.0938 45.625C20.783 45.625 20.4849 45.7452 20.2651 45.9591C20.0453 46.173 19.9219 46.4631 19.9219 46.7656V53.6094H12.8906C12.5798 53.6094 12.2818 53.7295 12.062 53.9434C11.8422 54.1574 11.7188 54.4475 11.7188 54.75C11.7188 55.0525 11.8422 55.3426 12.062 55.5565C12.2818 55.7704 12.5798 55.8906 12.8906 55.8906H19.9219V62.7344C19.9219 63.0369 20.0453 63.327 20.2651 63.5409C20.4849 63.7548 20.783 63.875 21.0938 63.875C21.4046 63.875 21.7026 63.7548 21.9224 63.5409C22.1422 63.327 22.2656 63.0369 22.2656 62.7344V55.8906H29.2969C29.6077 55.8906 29.9058 55.7704 30.1255 55.5565C30.3453 55.3426 30.4688 55.0525 30.4688 54.75C30.4688 54.4475 30.3453 54.1574 30.1255 53.9434C29.9058 53.7295 29.6077 53.6094 29.2969 53.6094Z" fill="#397EA5"/>
<path d="M35.0684 63.1069C36.4391 60.9385 37.2569 58.4823 37.4536 55.9435C37.6503 53.4047 37.2202 50.857 36.1992 48.513C35.1781 46.1689 33.5958 44.0966 31.5843 42.4691C29.5728 40.8416 27.1905 39.706 24.6362 39.1572C29.1944 33.0981 35.9312 29.6562 43.3594 29.6562C50.0277 29.6562 56.1882 32.4344 60.7061 37.4788C65.2563 42.5593 67.8204 49.6407 67.9626 57.4812C65.2725 58.8016 54.2268 63.875 43.3594 63.875C40.5775 63.865 37.8023 63.608 35.0684 63.1069Z" fill="#397EA5"/>
<path d="M43.3594 27.375C36.8873 27.375 31.6406 22.2682 31.6406 15.9688C31.6406 9.66925 36.8873 4.5625 43.3594 4.5625C49.8315 4.5625 55.0781 9.66925 55.0781 15.9688C55.0781 22.2682 49.8315 27.375 43.3594 27.375Z" fill="#397EA5"/>
</svg>
