<svg width="22" height="23" viewBox="0 0 22 23" fill="none" xmlns="http://www.w3.org/2000/svg">
<path d="M0.299889 11.5298C0.0633969 11.6209 -0.0585011 11.8949 0.0276482 12.1431L0.315486 12.9711L2.50712 10.6798L0.299889 11.5298Z" fill="white"/>
<path d="M2.37427 18.8896L3.69422 22.6844C3.73547 22.8042 3.82162 22.902 3.93162 22.9547C3.99302 22.9844 4.05901 22.9997 4.12501 22.9997C4.17911 22.9997 4.23226 22.9902 4.2836 22.97L5.74015 22.4085L2.37427 18.8896Z" fill="white"/>
<path d="M21.9719 15.6496L20.4613 11.3075L16.836 15.0976L18.6326 14.4057C18.8682 14.3117 19.134 14.4402 19.2211 14.6893C19.3091 14.9375 19.1872 15.2135 18.9497 15.3046L16.6673 16.1843C16.6151 16.2044 16.5619 16.214 16.5087 16.214C16.3226 16.214 16.1467 16.0942 16.0788 15.9006C16.0779 15.8978 16.0788 15.8949 16.0779 15.892L12.2363 19.9082L21.6997 16.2629C21.937 16.1719 22.0589 15.8978 21.9719 15.6496Z" fill="white"/>
<path d="M21.8662 7.80705L14.5331 0.14064C14.3544 -0.0462288 14.0638 -0.0462288 13.885 0.14064L0.135523 14.5151C-0.0432211 14.702 -0.0432211 15.0058 0.135523 15.1927L7.46862 22.8591C7.55751 22.953 7.67486 23 7.7922 23C7.90955 23 8.02685 22.953 8.11669 22.86L21.8662 8.48553C22.045 8.29772 22.045 7.99487 21.8662 7.80705ZM5.36679 13.277L3.5335 15.1936C3.44366 15.2866 3.32636 15.3335 3.20901 15.3335C3.09167 15.3335 2.97437 15.2866 2.88452 15.1936C2.70578 15.0067 2.70578 14.7029 2.88452 14.5161L4.71781 12.5995C4.89655 12.4126 5.18714 12.4126 5.36588 12.5995C5.54463 12.7864 5.54553 13.0892 5.36679 13.277ZM13.2819 13.8855C12.9574 14.2248 12.5165 14.3877 12.0261 14.3877C11.2158 14.3877 10.2689 13.944 9.47695 13.1151C8.89762 12.5094 8.49063 11.7849 8.33209 11.0758C8.15609 10.2852 8.30093 9.59717 8.73997 9.13719C9.17906 8.6772 9.83719 8.52578 10.5943 8.71076C11.2726 8.87656 11.9656 9.30106 12.5449 9.90766C13.8181 11.2378 14.1426 12.9857 13.2819 13.8855ZM19.1163 8.48553L17.283 10.4021C17.1932 10.4951 17.0759 10.5421 16.9585 10.5421C16.8412 10.5421 16.7239 10.4951 16.634 10.4021C16.4553 10.2153 16.4553 9.91148 16.634 9.72461L18.4673 7.808C18.6461 7.62113 18.9367 7.62113 19.1154 7.808C19.2941 7.99487 19.2951 8.29772 19.1163 8.48553Z" fill="white"/>
</svg>
