<svg width="76" height="74" viewBox="0 0 76 74" fill="none" xmlns="http://www.w3.org/2000/svg">
<path d="M56.8111 36.305C54.9844 36.305 53.2188 36.1783 51.548 35.9426V16.2825C53.2186 16.0469 54.9844 15.9202 56.8111 15.9202C67.241 15.9202 75.6962 20.037 75.6962 25.1155V27.1096C75.6962 32.1879 67.241 36.305 56.8111 36.305Z" fill="#E6882B"/>
<path d="M56.8111 46.5707C54.9844 46.5707 53.2188 46.444 51.548 46.2086V40.4459C53.2191 40.6815 54.9839 40.8099 56.8111 40.8099C65.9153 40.8099 73.5141 37.673 75.299 33.498C75.5589 34.1062 75.6962 34.7358 75.6962 35.3813V37.3755C75.6962 42.454 67.241 46.5707 56.8111 46.5707Z" fill="#E6882B"/>
<path d="M51.5481 51.1599V50.712C53.2192 50.9476 54.9841 51.076 56.8112 51.076C65.9154 51.076 73.5142 47.939 75.2991 43.7641C75.559 44.372 75.6963 45.0017 75.6963 45.6472V47.6414C75.6963 52.72 67.2411 56.8368 56.8112 56.8368C54.7254 56.8368 52.7193 56.6717 50.8432 56.3676C51.3082 55.3465 51.5481 54.2696 51.5481 53.1539V51.1599Z" fill="#E6882B"/>
<path d="M29.5814 0.34671C40.0113 0.34671 48.4664 4.46345 48.4664 9.54192V11.5361C48.4664 16.6146 40.0113 20.7313 29.5814 20.7313C19.1516 20.7313 10.6963 16.6146 10.6963 11.5361V9.54192C10.6963 4.46345 19.1516 0.34671 29.5814 0.34671Z" fill="#E6882B"/>
<path d="M29.5814 25.2364C38.6855 25.2364 46.2843 22.0996 48.0692 17.9245C48.3292 18.5325 48.4664 19.1621 48.4664 19.8078V21.802C48.4664 26.8805 40.0113 30.9972 29.5814 30.9972C19.1516 30.9972 10.6963 26.8805 10.6963 21.802V19.8078C10.6963 19.1621 10.8335 18.5325 11.0935 17.9245C12.8784 22.0996 20.4772 25.2364 29.5814 25.2364Z" fill="#E6882B"/>
<path d="M29.5814 35.5024C38.6855 35.5024 46.2843 32.3655 48.0692 28.1906C48.3292 28.7985 48.4664 29.4282 48.4664 30.0739V32.068C48.4664 37.1467 40.0113 41.2634 29.5814 41.2634C19.1516 41.2634 10.6963 37.1467 10.6963 32.068V30.0739C10.6963 29.4282 10.8335 28.7985 11.0935 28.1906C12.8784 32.3657 20.4772 35.5024 29.5814 35.5024Z" fill="#E6882B"/>
<path d="M29.5814 46.3226C38.6855 46.3226 46.2843 43.1856 48.0692 39.0107C48.3292 39.6188 48.4664 40.2483 48.4664 40.8938V42.8882C48.4664 47.9666 40.0113 52.0834 29.5814 52.0834C19.1516 52.0834 10.6963 47.9666 10.6963 42.8882V40.8938C10.6963 40.2483 10.8335 39.6185 11.0935 39.0107C12.8784 43.1855 20.4772 46.3226 29.5814 46.3226Z" fill="#E6882B"/>
<path d="M29.5814 56.5885C38.6855 56.5885 46.2843 53.4517 48.0692 49.2767C48.3292 49.8849 48.4664 50.5147 48.4664 51.1599V53.154C48.4664 58.2325 40.0113 62.3493 29.5814 62.3493C19.1516 62.3493 10.6963 58.2325 10.6963 53.154V51.1597C10.6963 50.5142 10.8335 49.8844 11.0935 49.2766C12.8784 53.4515 20.4772 56.5885 29.5814 56.5885Z" fill="#E6882B"/>
<ellipse cx="17.6963" cy="55.6335" rx="11" ry="10.1985" fill="white"/>
<path d="M16.6963 38.9938C7.87353 38.9938 0.696289 46.6988 0.696289 56.1702C0.696289 65.6417 7.87353 73.3467 16.6963 73.3467C25.519 73.3467 32.6963 65.6417 32.6963 56.1702C32.6963 46.6988 25.519 38.9938 16.6963 38.9938ZM23.6963 57.6015H18.0295V63.685C18.0295 64.4752 17.4324 65.1162 16.6963 65.1162C15.9602 65.1162 15.363 64.4752 15.363 63.685V57.6015H9.69629C8.9602 57.6015 8.36304 56.9605 8.36304 56.1702C8.36304 55.38 8.9602 54.739 9.69629 54.739H15.363V48.6555C15.363 47.8653 15.9602 47.2243 16.6963 47.2243C17.4324 47.2243 18.0295 47.8653 18.0295 48.6555V54.739H23.6963C24.4324 54.739 25.0295 55.38 25.0295 56.1702C25.0295 56.9605 24.4324 57.6015 23.6963 57.6015Z" fill="#42A475"/>
</svg>
