<svg width="49" height="49" viewBox="0 0 49 49" fill="none" xmlns="http://www.w3.org/2000/svg">
<g clip-path="url(#clip0)">
<path d="M48.9996 45.1722V49.0002C47.0411 49.0002 45.1282 47.8989 43.3138 45.7268C43.224 45.6192 43.0599 45.555 42.8747 45.555C42.6895 45.555 42.5254 45.6192 42.4356 45.7268C40.6212 47.8989 38.7082 49.0002 36.7498 49.0002C34.7913 49.0002 32.8784 47.8989 31.0641 45.7268C30.9742 45.6192 30.8101 45.555 30.6249 45.555C30.4397 45.555 30.2756 45.6192 30.1858 45.7268C28.3714 47.8989 26.4584 49.0002 24.5 49.0002C22.5416 49.0002 20.6286 47.8989 18.8143 45.7268C18.7244 45.6192 18.5603 45.555 18.3751 45.555C18.1899 45.555 18.0258 45.6192 17.936 45.7268C16.1216 47.8989 14.2086 49.0002 12.2502 49.0002C10.2918 49.0002 8.3788 47.8989 6.56449 45.7268C6.47463 45.6192 6.3105 45.555 6.12532 45.555C5.94014 45.555 5.77601 45.6192 5.68624 45.7268C3.87184 47.8989 1.95886 49.0002 0.000426458 49.0002V45.1722C0.738285 45.1722 1.7399 44.4799 2.74821 43.2727C3.56875 42.2903 4.79966 41.7269 6.12532 41.7269C7.45097 41.7269 8.68189 42.2904 9.50253 43.2727C10.5108 44.4798 11.5124 45.1722 12.2502 45.1722C12.9881 45.1722 13.9897 44.4799 14.998 43.2727C15.8185 42.2903 17.0494 41.7269 18.3751 41.7269C19.7008 41.7269 20.9317 42.2904 21.7523 43.2727C22.7606 44.4798 23.7621 45.1722 24.5 45.1722C25.2379 45.1722 26.2395 44.4799 27.2478 43.2727C28.0683 42.2903 29.2992 41.7269 30.6249 41.7269C31.9505 41.7269 33.1815 42.2904 34.0021 43.2727C35.0104 44.4798 36.0119 45.1722 36.7498 45.1722C37.4876 45.1722 38.4892 44.4799 39.4976 43.2727C40.3181 42.2903 41.549 41.7269 42.8747 41.7269C44.2003 41.7269 45.4312 42.2904 46.2519 43.2727C47.2601 44.4799 48.2616 45.1722 48.9996 45.1722ZM1.06185 38.4642C1.33565 38.6004 1.62649 38.665 1.91302 38.665C2.61643 38.665 3.29351 38.2757 3.62809 37.6031L14.0564 16.643L17.0128 22.4648L10.3443 35.8996C9.87433 36.8464 10.2609 37.995 11.2077 38.465C11.4812 38.6007 11.7713 38.665 12.0573 38.665C12.7613 38.665 13.4389 38.275 13.7732 37.6015L29.4104 6.09756L34.5123 16.1679L31.9366 21.2074L30.6446 19.0271C30.2866 18.423 29.6273 18.064 28.9248 18.0903C28.2232 18.1171 27.5925 18.526 27.2817 19.1556L23.5493 26.7161C23.0813 27.6639 23.4704 28.8116 24.4183 29.2796C24.6907 29.4141 24.9796 29.4778 25.2641 29.4778C25.9696 29.4778 26.6483 29.086 26.9818 28.4106L29.1513 24.0162L30.4137 26.1466C30.7692 26.7466 31.4217 27.1062 32.1201 27.0839C32.8172 27.0621 33.4473 26.6629 33.7647 26.0419L36.6523 20.3922L45.378 37.6158C45.8558 38.5588 47.0074 38.9359 47.9505 38.4581C48.8935 37.9805 49.2706 36.8287 48.7929 35.8857L31.1447 1.05036C30.8187 0.40686 30.1586 0.00137329 29.4373 0.00137329H29.3496C28.6226 0.00137329 27.9584 0.413272 27.6351 1.06442L19.135 18.1894L15.7765 11.5759C15.4502 10.9333 14.7906 10.5285 14.0699 10.5285H14.0084C13.2821 10.5285 12.6184 10.9397 12.2948 11.59L0.20073 35.8981C-0.270121 36.8443 0.115364 37.9933 1.06185 38.4642Z" fill="#397EA5"/>
</g>
<defs>
<clipPath id="clip0">
<rect width="49" height="49" fill="white"/>
</clipPath>
</defs>
</svg>
