<svg width="25" height="23" viewBox="0 0 34 26" fill="none" xmlns="http://www.w3.org/2000/svg">
<path d="M2.98828 0.0507812H31.0117C32.6574 0.0507812 34 1.39192 34 3.03906V22.9609C34 24.6025 32.6634 25.9492 31.0117 25.9492H2.98828C1.34672 25.9492 0 24.6126 0 22.9609V3.03906C0 1.3975 1.33662 0.0507812 2.98828 0.0507812ZM3.40093 2.04297L16.9366 15.5788L30.5894 2.04297H3.40093ZM32.0078 22.5484V3.44208L22.4135 12.9541L32.0078 22.5484ZM30.5991 23.957L20.9988 14.3567L17.6348 17.6917C17.2454 18.0778 16.617 18.0766 16.2292 17.6887L12.9492 14.4087L3.40086 23.957H30.5991ZM1.99219 22.5484L11.5405 13L1.99219 3.45158V22.5484Z" fill="#397EA5"/>
</svg>
