<svg width="25" height="25" viewBox="0 0 34 34" fill="none" xmlns="http://www.w3.org/2000/svg">
<path d="M14.1666 34C11.237 34 8.85413 31.6172 8.85413 28.6875C8.85413 28.101 9.33012 27.625 9.91663 27.625C10.5031 27.625 10.9791 28.101 10.9791 28.6875C10.9791 30.4457 12.4087 31.875 14.1666 31.875C15.9248 31.875 17.3541 30.4457 17.3541 28.6875C17.3541 28.101 17.8301 27.625 18.4166 27.625C19.0031 27.625 19.4791 28.101 19.4791 28.6875C19.4791 31.6172 17.0963 34 14.1666 34Z" fill="#397EA5"/>
<path d="M25.8541 29.75H2.47908C1.11205 29.75 0 28.638 0 27.2709C0 26.5454 0.315948 25.8585 0.866913 25.3867C0.900894 25.3568 0.937729 25.3301 0.97612 25.306C3.05858 23.4897 4.25 20.8775 4.25 18.1191V14.1666C4.25 9.55265 7.37654 5.59163 11.8546 4.53328C12.4185 4.39605 12.9964 4.75143 13.1326 5.32392C13.267 5.89486 12.9145 6.4671 12.342 6.60173C8.82866 7.4318 6.375 10.5428 6.375 14.1666V18.1191C6.375 21.5418 4.87463 24.7804 2.26093 27.003C2.24251 27.0188 2.22279 27.0344 2.20282 27.0484C2.16313 27.0979 2.125 27.1716 2.125 27.2709C2.125 27.4634 2.28661 27.625 2.47908 27.625H25.8541C26.0468 27.625 26.2084 27.4634 26.2084 27.2709C26.2084 27.1703 26.17 27.0966 26.1303 27.0499C26.1106 27.0344 26.0907 27.0201 26.0722 27.003C24.8058 25.9236 23.8043 24.6175 23.0946 23.1213C22.8438 22.5901 23.0689 21.9569 23.5989 21.7063C24.133 21.4539 24.762 21.6822 25.0141 22.2106C25.5765 23.3976 26.3656 24.4404 27.3602 25.3088C27.397 25.333 27.431 25.3584 27.465 25.3867C28.0175 25.8585 28.3334 26.5454 28.3334 27.2709C28.3334 28.638 27.2214 29.75 25.8541 29.75Z" fill="#397EA5"/>
<ellipse cx="25" cy="9" rx="8" ry="8" fill="#B73131"/>
<path d="M24.7915 18.4166C19.7143 18.4166 15.5834 14.2856 15.5834 9.20842C15.5834 4.13094 19.7143 0 24.7915 0C29.869 0 34 4.13094 34 9.20842C34 14.2856 29.869 18.4166 24.7915 18.4166ZM24.7915 2.125C20.8858 2.125 17.7084 5.30264 17.7084 9.20842C17.7084 13.1142 20.8858 16.2916 24.7915 16.2916C28.6973 16.2916 31.875 13.1142 31.875 9.20842C31.875 5.30264 28.6973 2.125 24.7915 2.125Z" fill="#B73131"/>
<path d="M26.5625 13.4584H23.0209C22.4344 13.4584 21.9584 12.9824 21.9584 12.3959V11.1633C21.9584 9.50026 23.3127 8.14594 24.9757 8.14594C25.2647 8.14594 25.5 7.91066 25.5 7.62169C25.5 7.31845 25.2647 7.08344 24.9757 7.08344H23.0209C22.4344 7.08344 21.9584 6.60744 21.9584 6.02094C21.9584 5.43443 22.4344 4.95844 23.0209 4.95844H24.9757C26.4364 4.95844 27.625 6.147 27.625 7.60742C27.625 9.08237 26.4364 10.2709 24.9757 10.2709C24.4841 10.2709 24.0834 10.6717 24.0834 11.1633V11.3334H26.5625C27.149 11.3334 27.625 11.8094 27.625 12.3959C27.625 12.9824 27.149 13.4584 26.5625 13.4584Z" fill="white"/>
</svg>
