<svg width="52" height="58" viewBox="0 0 52 58" fill="none" xmlns="http://www.w3.org/2000/svg">
<path d="M27.9925 40.1437V27.9383C30.8218 27.751 35.9071 26.9043 39.4159 23.3952C44.4042 18.4067 44.0135 10.2281 43.9945 9.88231C43.9386 8.86832 43.129 8.05862 42.1149 8.0027C41.7694 7.98344 33.5906 7.59294 28.6023 12.5813C28.0715 13.1121 27.6022 13.6792 27.1863 14.2689C26.4555 11.3322 25.0821 8.05132 22.5149 5.48408C16.5565 -0.474311 6.7515 -0.00583757 6.33722 0.0172739C5.32324 0.0731932 4.51354 0.882894 4.45762 1.89688C4.43477 2.31142 3.96603 12.1164 9.92455 18.0749C14.2898 22.4402 20.7186 23.3558 24.0077 23.5244V40.1437C24.6674 40.0695 25.3326 40.0313 26.0001 40.0313C26.6677 40.0313 27.3327 40.0697 27.9925 40.1437Z" fill="#42A475"/>
<path d="M42.0052 41.15C40.9337 41.15 39.8785 41.3208 38.8748 41.6522C37.9746 39.5501 36.5608 37.6745 34.7619 36.2287C32.2895 34.2416 29.1778 33.1473 26.0001 33.1473C22.8225 33.1473 19.7108 34.2416 17.2383 36.2287C15.4393 37.6745 14.0255 39.5501 13.1254 41.6522C12.1216 41.3208 11.0663 41.15 9.99494 41.15C4.48377 41.15 0 45.6337 0 51.145V55.1464C0 56.2467 0.892052 57.1388 1.99237 57.1388H50.0076C51.1079 57.1388 52 56.2467 52 55.1464V51.145C52.0001 45.6337 47.5165 41.15 42.0052 41.15Z" fill="#A47142"/>
</svg>
