<svg width="75" height="73" viewBox="0 0 75 73" fill="none" xmlns="http://www.w3.org/2000/svg">
<path d="M56.1148 35.9583C54.2881 35.9583 52.5225 35.8316 50.8517 35.5958V15.9358C52.5223 15.7002 54.2881 15.5735 56.1148 15.5735C66.5447 15.5735 74.9999 19.6903 74.9999 24.7687V26.7629C74.9999 31.8412 66.5447 35.9583 56.1148 35.9583Z" fill="#E6882B"/>
<path d="M56.1148 46.224C54.2881 46.224 52.5225 46.0973 50.8517 45.8619V40.0992C52.5228 40.3348 54.2876 40.4632 56.1148 40.4632C65.219 40.4632 72.8178 37.3263 74.6027 33.1513C74.8626 33.7594 74.9999 34.3891 74.9999 35.0346V37.0288C74.9999 42.1073 66.5447 46.224 56.1148 46.224Z" fill="#E6882B"/>
<path d="M50.8518 50.8132V50.3652C52.5229 50.6009 54.2878 50.7293 56.1149 50.7293C65.2191 50.7293 72.8179 47.5923 74.6028 43.4174C74.8627 44.0253 75 44.655 75 45.3005V47.2947C75 52.3733 66.5448 56.4901 56.1149 56.4901C54.0291 56.4901 52.023 56.325 50.1469 56.0209C50.6119 54.9998 50.8518 53.9228 50.8518 52.8072V50.8132Z" fill="#E6882B"/>
<path d="M28.8851 0C39.315 0 47.7701 4.11674 47.7701 9.19521V11.1894C47.7701 16.2678 39.315 20.3846 28.8851 20.3846C18.4553 20.3846 9.99999 16.2678 9.99999 11.1894V9.19521C9.99999 4.11674 18.4553 0 28.8851 0Z" fill="#E6882B"/>
<path d="M28.8851 24.8897C37.9893 24.8897 45.5881 21.7529 47.373 17.5778C47.6329 18.1857 47.7701 18.8154 47.7701 19.4611V21.4552C47.7701 26.5337 39.315 30.6505 28.8851 30.6505C18.4553 30.6505 9.99999 26.5337 9.99999 21.4552V19.4611C9.99999 18.8154 10.1372 18.1857 10.3972 17.5778C12.1821 21.7529 19.7809 24.8897 28.8851 24.8897Z" fill="#E6882B"/>
<path d="M28.8851 35.1557C37.9893 35.1557 45.5881 32.0188 47.373 27.8438C47.6329 28.4518 47.7701 29.0815 47.7701 29.7272V31.7213C47.7701 36.8 39.315 40.9167 28.8851 40.9167C18.4553 40.9167 9.99999 36.8 9.99999 31.7213V29.7272C9.99999 29.0815 10.1372 28.4518 10.3972 27.8438C12.1821 32.019 19.7809 35.1557 28.8851 35.1557Z" fill="#E6882B"/>
<path d="M28.8851 45.9759C37.9893 45.9759 45.5881 42.8389 47.373 38.664C47.6329 39.2721 47.7701 39.9016 47.7701 40.5471V42.5415C47.7701 47.6199 39.315 51.7367 28.8851 51.7367C18.4553 51.7367 9.99999 47.6199 9.99999 42.5415V40.5471C9.99999 39.9016 10.1372 39.2718 10.3972 38.664C12.1821 42.8387 19.7809 45.9759 28.8851 45.9759Z" fill="#E6882B"/>
<path d="M28.8851 56.2417C37.9893 56.2417 45.5881 53.105 47.373 48.93C47.6329 49.5381 47.7701 50.168 47.7701 50.8132V52.8073C47.7701 57.8858 39.315 62.0025 28.8851 62.0025C18.4553 62.0025 9.99999 57.8858 9.99999 52.8073V50.813C9.99999 50.1675 10.1372 49.5376 10.3972 48.9298C12.1821 53.1048 19.7809 56.2417 28.8851 56.2417Z" fill="#E6882B"/>
<g clip-path="url(#clip0)">
<ellipse cx="16" cy="55.8235" rx="12" ry="11.8088" fill="white"/>
<path d="M12.7859 57.7557L14.2928 56.1379C14.6834 55.7187 15.3165 55.7187 15.7071 56.1379C16.0976 56.5571 16.0976 57.2369 15.7071 57.6561L14.2002 59.2738L15.9794 63.4124L21.5441 49.8717L8.93079 55.8455L12.7859 57.7557Z" fill="#666666"/>
<path d="M16 38.6471C7.16344 38.6471 0 46.3372 0 55.8235C0 65.3098 7.16344 73 16 73C24.8366 73 32 65.3098 32 55.8235C32 46.3372 24.8366 38.6471 16 38.6471ZM24.4149 48.2054L16.9149 66.4554C16.5683 67.2989 15.4524 67.3102 15.0921 66.4719L12.2464 59.8531L6.08094 56.7982C5.30119 56.4119 5.3095 55.214 6.09637 54.8413L23.0964 46.7899C23.9298 46.3951 24.7826 47.3107 24.4149 48.2054Z" fill="#666666"/>
</g>
<defs>
<clipPath id="clip0">
<rect width="32" height="34.3529" fill="white" transform="translate(0 38.6471)"/>
</clipPath>
</defs>
</svg>
