<svg width="59" height="59" viewBox="0 0 59 59" fill="none" xmlns="http://www.w3.org/2000/svg">
<path d="M29.5 0C13.2093 0 0 13.2067 0 29.4987C0 45.7907 13.208 58.9974 29.5 58.9974C45.7933 58.9974 59 45.7907 59 29.4987C59 13.2067 45.7933 0 29.5 0ZM29.5 8.82046C34.8905 8.82046 39.2586 13.1899 39.2586 18.5778C39.2586 23.967 34.8905 28.3351 29.5 28.3351C24.1121 28.3351 19.744 23.967 19.744 18.5778C19.744 13.1899 24.1121 8.82046 29.5 8.82046ZM29.4935 51.2849C24.1173 51.2849 19.1933 49.3269 15.3953 46.0861C14.4701 45.297 13.9362 44.1399 13.9362 42.9257C13.9362 37.4613 18.3588 33.088 23.8244 33.088H35.1782C40.6451 33.088 45.0508 37.4613 45.0508 42.9257C45.0508 44.1411 44.5195 45.2957 43.593 46.0848C39.7964 49.3269 34.8711 51.2849 29.4935 51.2849Z" fill="#666666"/>
</svg>
