<svg width="75" height="73" viewBox="0 0 75 73" fill="none" xmlns="http://www.w3.org/2000/svg">
<path d="M56.1148 37.1175C54.2881 37.1175 52.5225 36.9995 50.8517 36.7799V18.4664C52.5223 18.2469 54.2881 18.129 56.1148 18.129C66.5447 18.129 74.9999 21.9637 74.9999 26.6944V28.5519C74.9999 33.2824 66.5447 37.1175 56.1148 37.1175Z" fill="#E6882B"/>
<path d="M56.1148 46.6801C54.2881 46.6801 52.5225 46.5621 50.8517 46.3428V40.9748C52.5228 41.1942 54.2876 41.3138 56.1148 41.3138C65.219 41.3138 72.8178 38.3918 74.6027 34.5028C74.8626 35.0692 74.9999 35.6558 74.9999 36.2571V38.1147C74.9999 42.8453 66.5447 46.6801 56.1148 46.6801Z" fill="#E6882B"/>
<path d="M50.8518 50.9549V50.5377C52.5229 50.7571 54.2878 50.8767 56.1149 50.8767C65.2191 50.8767 72.8179 47.9547 74.6028 44.0657C74.8627 44.632 75 45.2185 75 45.8198V47.6774C75 52.4082 66.5448 56.243 56.1149 56.243C54.0291 56.243 52.023 56.0892 50.1469 55.806C50.6119 54.8548 50.8518 53.8516 50.8518 52.8123V50.9549Z" fill="#E6882B"/>
<path d="M28.8851 3.6221C39.315 3.6221 47.7701 7.45687 47.7701 12.1875V14.0451C47.7701 18.7757 39.315 22.6105 28.8851 22.6105C18.4553 22.6105 9.99999 18.7757 9.99999 14.0451V12.1875C9.99999 7.45687 18.4553 3.6221 28.8851 3.6221Z" fill="#E6882B"/>
<path d="M28.8851 26.807C37.9893 26.807 45.5881 23.8851 47.373 19.9959C47.6329 20.5622 47.7701 21.1488 47.7701 21.7502V23.6078C47.7701 28.3384 39.315 32.1732 28.8851 32.1732C18.4553 32.1732 9.99999 28.3384 9.99999 23.6078V21.7502C9.99999 21.1488 10.1372 20.5622 10.3972 19.9959C12.1821 23.8851 19.7809 26.807 28.8851 26.807Z" fill="#E6882B"/>
<path d="M28.8851 36.3699C37.9893 36.3699 45.5881 33.4478 47.373 29.5588C47.6329 30.1251 47.7701 30.7117 47.7701 31.3131V33.1707C47.7701 37.9015 39.315 41.7363 28.8851 41.7363C18.4553 41.7363 9.99999 37.9015 9.99999 33.1707V31.3131C9.99999 30.7117 10.1372 30.1251 10.3972 29.5588C12.1821 33.448 19.7809 36.3699 28.8851 36.3699Z" fill="#E6882B"/>
<path d="M28.8851 46.4489C37.9893 46.4489 45.5881 43.5269 47.373 39.6379C47.6329 40.2043 47.7701 40.7907 47.7701 41.392V43.2498C47.7701 47.9804 39.315 51.8152 28.8851 51.8152C18.4553 51.8152 9.99999 47.9804 9.99999 43.2498V41.392C9.99999 40.7907 10.1372 40.204 10.3972 39.6379C12.1821 43.5267 19.7809 46.4489 28.8851 46.4489Z" fill="#E6882B"/>
<path d="M28.8851 56.0117C37.9893 56.0117 45.5881 53.0897 47.373 49.2008C47.6329 49.7672 47.7701 50.354 47.7701 50.9549V52.8125C47.7701 57.5431 39.315 61.3779 28.8851 61.3779C18.4553 61.3779 9.99999 57.5431 9.99999 52.8125V50.9547C9.99999 50.3535 10.1372 49.7668 10.3972 49.2006C12.1821 53.0896 19.7809 56.0117 28.8851 56.0117Z" fill="#E6882B"/>
<ellipse cx="16" cy="57.5" rx="11" ry="9.5" fill="white"/>
<path d="M16 41C7.17725 41 0 48.1772 0 57C0 65.8228 7.17725 73 16 73C24.8228 73 32 65.8228 32 57C32 48.1772 24.8228 41 16 41ZM23 58.3333H9C8.26392 58.3333 7.66675 57.7361 7.66675 57C7.66675 56.2639 8.26392 55.6667 9 55.6667H23C23.7361 55.6667 24.3333 56.2639 24.3333 57C24.3333 57.7361 23.7361 58.3333 23 58.3333Z" fill="#A44242"/>
</svg>
