<svg width="22" height="20" viewBox="0 0 22 20" fill="none" xmlns="http://www.w3.org/2000/svg">
<path d="M21.56 15.3L13.89 2.58C13.5798 2.09481 13.1525 1.69552 12.6475 1.41894C12.1424 1.14235 11.5758 0.997375 11 0.997375C10.4242 0.997375 9.85758 1.14235 9.35251 1.41894C8.84744 1.69552 8.42014 2.09481 8.10999 2.58L0.439993 15.3C0.169047 15.7517 0.0217822 16.2667 0.0130052 16.7933C0.00422821 17.3199 0.134248 17.8396 0.389993 18.3C0.685673 18.8183 1.11365 19.2487 1.63019 19.5474C2.14674 19.8461 2.73332 20.0023 3.32999 20H18.67C19.2627 20.0063 19.8467 19.8562 20.3629 19.5647C20.8791 19.2733 21.3092 18.8508 21.61 18.34C21.8733 17.8748 22.0074 17.3477 21.9986 16.8132C21.9898 16.2787 21.8384 15.7563 21.56 15.3V15.3ZM11 16C10.8022 16 10.6089 15.9414 10.4444 15.8315C10.28 15.7216 10.1518 15.5654 10.0761 15.3827C10.0004 15.2 9.98062 14.9989 10.0192 14.8049C10.0578 14.6109 10.153 14.4327 10.2929 14.2929C10.4327 14.153 10.6109 14.0578 10.8049 14.0192C10.9989 13.9806 11.2 14.0004 11.3827 14.0761C11.5654 14.1518 11.7216 14.28 11.8315 14.4444C11.9413 14.6089 12 14.8022 12 15C12 15.2652 11.8946 15.5196 11.7071 15.7071C11.5196 15.8946 11.2652 16 11 16ZM12 12C12 12.2652 11.8946 12.5196 11.7071 12.7071C11.5196 12.8946 11.2652 13 11 13C10.7348 13 10.4804 12.8946 10.2929 12.7071C10.1054 12.5196 9.99999 12.2652 9.99999 12V8C9.99999 7.73478 10.1054 7.48043 10.2929 7.29289C10.4804 7.10536 10.7348 7 11 7C11.2652 7 11.5196 7.10536 11.7071 7.29289C11.8946 7.48043 12 7.73478 12 8V12Z" fill="#D56666"/>
</svg>
