<svg width="20" height="20" viewBox="0 0 20 20" fill="none" xmlns="http://www.w3.org/2000/svg">
<path d="M14 8.99999H8.34L9.59 7.68999C9.773 7.49771 9.87212 7.24061 9.86556 6.97524C9.85899 6.70988 9.74728 6.45799 9.555 6.27499C9.36272 6.09199 9.10562 5.99287 8.84025 5.99944C8.57489 6.006 8.323 6.11771 8.14 6.30999L5.28 9.30999C5.24662 9.35088 5.21652 9.39435 5.19 9.43999C5.14384 9.49733 5.10674 9.56141 5.08 9.62999C5.04485 9.71942 5.02458 9.81401 5.02 9.90999L5 9.99999C5.00158 10.1307 5.02876 10.2598 5.08 10.38C5.12874 10.4992 5.20005 10.6078 5.29 10.7L8.29 13.7C8.38296 13.7937 8.49356 13.8681 8.61542 13.9189C8.73728 13.9697 8.86799 13.9958 9 13.9958C9.13201 13.9958 9.26272 13.9697 9.38458 13.9189C9.50644 13.8681 9.61704 13.7937 9.71 13.7C9.80373 13.607 9.87812 13.4964 9.92889 13.3746C9.97966 13.2527 10.0058 13.122 10.0058 12.99C10.0058 12.858 9.97966 12.7273 9.92889 12.6054C9.87812 12.4836 9.80373 12.373 9.71 12.28L8.41 11H14C14.2652 11 14.5196 10.8946 14.7071 10.7071C14.8946 10.5196 15 10.2652 15 9.99999C15 9.73478 14.8946 9.48042 14.7071 9.29289C14.5196 9.10535 14.2652 8.99999 14 8.99999Z" fill="#27201E"/>
<path d="M10 0C8.02218 0 6.08879 0.58649 4.44429 1.6853C2.7998 2.78412 1.51808 4.3459 0.761202 6.17317C0.00432521 8.00043 -0.193708 10.0111 0.192144 11.9509C0.577996 13.8907 1.5304 15.6725 2.92893 17.0711C4.32745 18.4696 6.10928 19.422 8.04909 19.8079C9.9889 20.1937 11.9996 19.9957 13.8268 19.2388C15.6541 18.4819 17.2159 17.2002 18.3147 15.5557C19.4135 13.9112 20 11.9778 20 10C20 8.68678 19.7413 7.38642 19.2388 6.17317C18.7362 4.95991 17.9996 3.85752 17.0711 2.92893C16.1425 2.00035 15.0401 1.26375 13.8268 0.761205C12.6136 0.258658 11.3132 0 10 0ZM10 18C8.41775 18 6.87103 17.5308 5.55543 16.6518C4.23984 15.7727 3.21446 14.5233 2.60896 13.0615C2.00346 11.5997 1.84503 9.99113 2.15371 8.43928C2.4624 6.88743 3.22432 5.46197 4.34314 4.34315C5.46196 3.22433 6.88743 2.4624 8.43927 2.15372C9.99112 1.84504 11.5997 2.00346 13.0615 2.60896C14.5233 3.21447 15.7727 4.23984 16.6518 5.55544C17.5308 6.87103 18 8.41775 18 10C18 12.1217 17.1571 14.1566 15.6569 15.6569C14.1566 17.1571 12.1217 18 10 18Z" fill="#27201E"/>
</svg>
