<svg width="16" height="22" viewBox="0 0 14 20" fill="none" xmlns="http://www.w3.org/2000/svg">
<path d="M13.1962 6.80187C13.1962 3.04529 10.2475 0 6.61017 0C2.97284 0 0.0241776 3.04533 0.0241776 6.80187C0.0241776 8.50064 0.627219 10.0539 1.62418 11.2459H1.62414L3.06471 13.8572C3.44097 14.5539 3.58063 15.0037 4.21115 15.0037H8.90838C9.53894 15.0037 9.72443 14.53 10.0548 13.8572L11.5962 11.2459H11.5961C12.5931 10.0539 13.1962 8.50064 13.1962 6.80187Z" fill="#FFE46A"/>
<path d="M0.431624 7.63025C0.431624 3.74829 3.35752 0.539883 7.15592 0.0256313C6.96641 0.00869253 6.77625 0.000140379 6.58599 0C2.94867 0 0 3.04533 0 6.80187C0 8.03808 0.319599 9.19701 0.87771 10.1959C0.588877 9.39367 0.431624 8.53004 0.431624 7.63025V7.63025Z" fill="#FFF0B7"/>
<path d="M13.1962 6.81642C13.1962 5.47089 12.8178 4.21671 12.1651 3.16095C12.3048 3.71227 12.3755 4.27881 12.3755 4.84756C12.3755 9.31716 8.04775 12.9572 2.64152 13.1046L3.06471 13.8718C3.44096 14.5684 3.58063 15.0183 4.21114 15.0183H8.90838C9.53894 15.0183 9.72443 14.5446 10.0548 13.8718L11.5962 11.2605H11.5961C12.5931 10.0684 13.1962 8.51519 13.1962 6.81642Z" fill="#FFDA00"/>
<path d="M9.37903 7.96905C9.38541 7.96345 9.39174 7.95831 9.39816 7.95215C9.51741 7.83803 9.61562 7.656 9.53342 7.48715C9.19627 6.79498 8.16542 6.57538 7.41428 6.80461C7.37624 6.8162 7.33936 6.82882 7.30354 6.84248C6.89438 6.60358 6.38638 6.54615 5.93421 6.68976C5.88069 6.70671 5.82815 6.72662 5.77683 6.74941C5.52929 6.60478 5.23973 6.53263 4.95124 6.56053C4.34739 6.61894 3.82265 7.10867 3.71867 7.70525L3.67109 7.73469C4.0826 8.39969 5.16575 10.3051 5.23515 11.1251C5.32266 12.1595 5.23524 14.9673 5.23434 14.9956L5.74756 15.0118C5.75124 14.8953 5.83682 12.1458 5.74675 11.0818C5.70661 10.6074 5.41633 9.85122 4.88393 8.8344C4.63545 8.35977 4.3942 7.94308 4.24816 7.69721C4.34914 7.37003 4.65937 7.10465 5.00066 7.07166C5.1046 7.0616 5.21003 7.07324 5.31093 7.10285C5.27297 7.15147 5.23973 7.2036 5.21166 7.25852C5.03849 7.59806 5.11085 8.02438 5.37995 8.25023C5.53935 8.38395 5.77093 8.4332 5.98445 8.3786C6.1833 8.32776 6.337 8.19708 6.4061 8.02006C6.46819 7.86096 6.46293 7.67731 6.3904 7.47423C6.34842 7.35739 6.29007 7.24711 6.2171 7.14667C6.4109 7.10939 6.61089 7.12032 6.79947 7.17851C6.72609 7.26302 6.66995 7.35707 6.63302 7.45904C6.55411 7.67731 6.58899 7.9367 6.72408 8.13606C6.84051 8.30791 7.01745 8.41005 7.20966 8.41638C7.21608 8.41659 7.22254 8.41672 7.22891 8.41672C7.39729 8.41672 7.55711 8.34432 7.68086 8.21146C7.82622 8.0554 7.9002 7.83876 7.87872 7.63191C7.86507 7.50042 7.8183 7.37179 7.74299 7.25249C8.26657 7.15737 8.77873 7.33426 9.00029 7.60277C8.86658 7.82528 8.59199 8.29212 8.30804 8.83448C7.77569 9.85135 7.48531 10.6075 7.44522 11.0819C7.35519 12.1459 7.44077 14.8954 7.4444 15.0119L7.95763 14.9957C7.95673 14.9674 7.86931 12.1597 7.95682 11.1252C8.01925 10.387 8.90303 8.76974 9.37903 7.96905V7.96905ZM5.92771 7.83336C5.91577 7.864 5.87076 7.87765 5.85723 7.88112C5.80375 7.89477 5.7432 7.8848 5.70995 7.85694C5.62373 7.78458 5.60499 7.61736 5.669 7.49186C5.69001 7.45144 5.71666 7.41423 5.74816 7.38133C5.8171 7.45955 5.87191 7.54932 5.90679 7.64697C5.93524 7.72656 5.94286 7.79455 5.92771 7.83336ZM7.30512 7.86135C7.2901 7.8774 7.25955 7.9038 7.22643 7.90311C7.19087 7.90196 7.16272 7.86807 7.14907 7.84796C7.10658 7.78518 7.09293 7.69704 7.11586 7.63362C7.14231 7.56045 7.19335 7.50059 7.25292 7.4524C7.31924 7.52733 7.35994 7.6079 7.36794 7.68493C7.3741 7.74359 7.34881 7.81445 7.30512 7.86135V7.86135Z" fill="#FAAF63"/>
<path d="M9.12345 16.1633H4.07272C3.7903 16.1633 3.55924 16.3943 3.55924 16.6768V16.9744C3.55924 17.2569 3.7903 17.4879 4.07272 17.4879H5.70396C5.21757 17.6689 4.704 18.0992 4.704 18.5982V18.7984C5.09438 19.2372 5.45792 20 6.15039 20H7.08707C7.63256 20 8.02006 19.4111 8.49212 18.7984V18.5982C8.49212 18.0992 8.00213 17.6689 7.52729 17.4879H9.12345C9.40586 17.4879 9.63693 17.2569 9.63693 16.9744V16.6768C9.63693 16.3943 9.40586 16.1633 9.12345 16.1633Z" fill="#6B83A5"/>
<path d="M9.48605 16.1633H3.71012C3.4277 16.1633 3.19664 15.9322 3.19664 15.6498V15.3521C3.19664 15.0697 3.4277 14.8386 3.71012 14.8386H9.48605C9.76847 14.8386 9.99953 15.0697 9.99953 15.3521V15.6498C9.99953 15.9322 9.76847 16.1633 9.48605 16.1633ZM9.18622 18.2991V18.0014C9.18622 17.719 8.95515 17.488 8.67274 17.488H4.52343C4.24101 17.488 4.00995 17.719 4.00995 18.0014V18.2991C4.00995 18.5815 4.24101 18.8126 4.52343 18.8126H8.67274C8.95515 18.8126 9.18622 18.5815 9.18622 18.2991Z" fill="#ABBDDB"/>
</svg>
