<svg width="22" height="22" viewBox="0 0 22 22" fill="none" xmlns="http://www.w3.org/2000/svg">
<path d="M6.59818 17.6C5.38852 17.6 4.40979 18.59 4.40979 19.8C4.40979 21.01 5.38852 22 6.59818 22C7.80785 22 8.79758 21.01 8.79758 19.8C8.79758 18.59 7.80785 17.6 6.59818 17.6ZM17.5952 17.6C16.3855 17.6 15.4068 18.59 15.4068 19.8C15.4068 21.01 16.3855 22 17.5952 22C18.8048 22 19.7945 21.01 19.7945 19.8C19.7945 18.59 18.8048 17.6 17.5952 17.6ZM16.0006 12.1C16.8254 12.1 17.5512 11.649 17.9251 10.967L21.862 3.828C21.9547 3.66127 22.0022 3.47322 21.9999 3.28246C21.9976 3.0917 21.9456 2.90485 21.8489 2.74039C21.7523 2.57593 21.6144 2.43956 21.4489 2.34478C21.2834 2.25 21.096 2.20009 20.9052 2.2H4.62973L3.59601 0H0V2.2H2.19939L6.1583 10.549L4.67371 13.233C3.87093 14.707 4.92664 16.5 6.59818 16.5H19.7945V14.3H6.59818L7.80785 12.1H16.0006ZM5.67444 4.4H19.0358L16.0006 9.9H8.28072L5.67444 4.4Z" fill="#282828"/>
</svg>
