<svg width="145" height="145" viewBox="0 0 145 145" fill="none" xmlns="http://www.w3.org/2000/svg">
<g clip-path="url(#clip0)">
<path d="M20.4869 81.6134C19.6406 82.4387 19.6229 83.7938 20.4482 84.6401C20.8674 85.0705 21.4239 85.2862 21.9803 85.2862C22.5191 85.2862 23.0589 85.0848 23.4749 84.6788C27.7528 80.5093 26.0005 77.0777 24.84 74.8066C23.7503 72.6759 23.3001 71.7931 25.5956 69.6326C26.4552 68.8228 26.4972 67.4676 25.6863 66.608C24.8765 65.7463 23.5214 65.7064 22.6618 66.5162C18.0254 70.8793 19.832 74.4149 21.0278 76.7547C22.0733 78.8002 22.5058 79.6465 20.4869 81.6134V81.6134Z" fill="#282828"/>
<path d="M32.335 70.1381C31.4887 70.9634 31.471 72.3186 32.2962 73.1649C32.7155 73.5952 33.272 73.8109 33.8295 73.8109C34.3672 73.8109 34.907 73.6096 35.323 73.2036C39.6031 69.0319 37.8464 65.6002 36.6837 63.3302C35.5929 61.1995 35.1415 60.3167 37.4359 58.1573C38.2966 57.3475 38.3375 55.9924 37.5278 55.1328C36.7169 54.271 35.3617 54.2312 34.5021 55.041C29.8658 59.4052 31.6756 62.9408 32.8737 65.2805C33.9202 67.3249 34.3528 68.1712 32.335 70.1381Z" fill="#282828"/>
<path d="M63.7838 58.008C64.338 58.008 64.8911 57.7934 65.3104 57.3652C66.0073 56.7468 69.1237 56.7535 69.8118 57.3719C70.6459 58.2104 72.0011 58.2148 72.8385 57.3818C73.6771 56.5488 73.6815 55.1936 72.8485 54.3551C71.3008 52.7964 68.6557 52.6205 67.5439 52.6205C67.5296 52.6205 67.5152 52.6205 67.5008 52.6205C66.4321 52.6249 63.7827 52.8041 62.2549 54.3673C61.4285 55.2124 61.4407 56.5709 62.287 57.3973C62.7029 57.8044 63.2439 58.008 63.7838 58.008V58.008Z" fill="#282828"/>
<path d="M81.1178 58.008C81.672 58.008 82.2252 57.7934 82.6433 57.3652C83.3403 56.7468 86.4577 56.7535 87.1458 57.3719C87.9788 58.2104 89.334 58.2148 90.1725 57.3818C91.0111 56.5488 91.0155 55.1936 90.1825 54.3551C88.6337 52.7964 85.9898 52.6205 84.878 52.6205C84.8625 52.6205 84.8481 52.6205 84.8348 52.6205C83.7662 52.6249 81.1167 52.8041 79.5889 54.3673C78.7626 55.2124 78.7747 56.5709 79.6199 57.3962C80.037 57.8044 80.5768 58.008 81.1178 58.008V58.008Z" fill="#282828"/>
<path d="M80.6866 70C80.1323 70 79.5792 70.2146 79.161 70.6427C78.4641 71.2611 75.3466 71.2545 74.6585 70.6361C73.8255 69.7976 72.4704 69.7931 71.6318 70.6261C70.7933 71.4592 70.7888 72.8143 71.6219 73.6529C73.1706 75.2116 75.8146 75.3875 76.9264 75.3875C76.9419 75.3875 76.9563 75.3875 76.9695 75.3875C78.0382 75.3831 80.6877 75.2039 82.2154 73.6407C83.0418 72.7955 83.0296 71.437 82.1844 70.6118C81.7674 70.2036 81.2275 70 80.6866 70V70Z" fill="#282828"/>
<path d="M76.4328 31.7597C77.6143 31.7597 78.5723 30.8017 78.5723 29.6191V19.7899C78.5723 18.6084 77.6143 17.6504 76.4328 17.6504C75.2502 17.6504 74.2921 18.6084 74.2921 19.7899V29.6191C74.2921 30.8017 75.2502 31.7597 76.4328 31.7597Z" fill="#3D806D"/>
<path d="M61.9009 22.0932C60.7194 22.0932 59.7614 23.0512 59.7614 24.2338V34.0552C59.7614 35.2367 60.7194 36.1947 61.9009 36.1947C63.0835 36.1947 64.0415 35.2367 64.0415 34.0552V24.2338C64.0415 23.0512 63.0835 22.0932 61.9009 22.0932Z" fill="#3D806D"/>
<path d="M90.9635 36.1947C92.145 36.1947 93.103 35.2367 93.103 34.0541V24.2327C93.103 23.0512 92.145 22.0932 90.9635 22.0932C89.7809 22.0932 88.8229 23.0512 88.8229 24.2327V34.0541C88.8229 35.2367 89.7809 36.1947 90.9635 36.1947Z" fill="#3D806D"/>
<path d="M127 68C127.552 68 128 67.0489 128 65.8748V56.1241C128 54.9511 127.552 54 127 54C126.448 54 126 54.9511 126 56.1241V65.8748C126 67.0489 126.448 68 127 68Z" fill="#282828"/>
<path d="M132 68C132.552 68 133 67.0489 133 65.8748V56.1241C133 54.9511 132.552 54 132 54C131.448 54 131 54.9511 131 56.1241V65.8748C131 67.0489 131.448 68 132 68Z" fill="#282828"/>
<path d="M137 68C137.552 68 138 67.0489 138 65.8748V56.1241C138 54.9511 137.552 54 137 54C136.448 54 136 54.9511 136 56.1241V65.8748C136 67.0489 136.448 68 137 68Z" fill="#282828"/>
<path d="M136.696 78.1585C141.275 78.1585 145 74.4304 145 69.8483V51.2122C145 46.6312 141.275 42.9031 136.696 42.9031H127.611C123.032 42.9031 119.307 46.6312 119.307 51.2122V69.8483C119.307 74.4304 123.032 78.1585 127.611 78.1585H130.013V108.129H128.241C127.628 108.129 127.033 108.207 126.466 108.352L124.424 99.7008C122.051 89.6415 113.696 84.202 99.5913 83.5339C99.5813 83.5328 99.5713 83.5328 99.5614 83.5328C98.4253 83.4951 97.4551 83.2905 96.5977 82.8834C96.5645 82.8679 96.5324 82.8502 96.4981 82.8358C95.4771 82.3291 94.6153 81.5238 93.8221 80.3589C94.2779 80.0082 94.7292 79.6498 95.1662 79.2759C101.354 73.9935 104.76 67.2917 104.76 60.403V46.6245C104.792 46.4132 104.791 46.2042 104.76 46.0017V31.9533C108.768 29.015 110.422 24.8146 109.194 20.5212C107.697 15.2874 102.355 11.6323 96.2006 11.6323H90.1637C88.3018 7.33673 84.2529 4.5401 79.0413 4.04118C72.7224 3.43716 66.5726 6.45283 63.3247 11.6323H57.5577C51.3151 11.6323 45.8944 15.3416 44.3755 20.6528C43.1619 24.8998 44.7859 29.0504 48.7353 31.9522V56.6351V56.655V61.5137C48.7353 68.7299 53.1316 74.4072 56.8198 77.8975C57.7037 78.7349 58.6396 79.5314 59.6109 80.2837C58.8012 81.4939 57.9206 82.3269 56.8696 82.8447C56.8663 82.8469 56.8641 82.848 56.8608 82.8491C55.9846 83.2794 54.9912 83.494 53.8219 83.5328C53.8119 83.5328 53.802 83.5339 53.792 83.5339C51.627 83.6367 49.5982 83.8525 47.7053 84.1799C47.6976 84.181 47.6899 84.1821 47.6821 84.1843C38.3674 85.8006 32.3504 90.1349 29.7385 97.1177H7.23385C3.24467 97.1177 0 100.368 0 104.364C0 108.355 3.24467 111.603 7.23385 111.603H12.7961C14.9356 116.578 18.2456 120.815 22.4726 124.009H20.3917C16.9048 124.009 14.0683 126.847 14.0683 130.337V134.707C14.0683 138.196 16.9048 141.035 20.3917 141.035H32.9268C34.1083 141.035 35.0663 140.077 35.0663 138.896C35.0663 137.713 34.1083 136.755 32.9268 136.755H20.3917C19.2645 136.755 18.3485 135.837 18.3485 134.707V130.337C18.3485 129.207 19.2656 128.289 20.3917 128.289H64.9664C65.9498 128.289 66.7729 128.988 66.9676 129.917C66.9742 129.988 66.9853 130.058 66.9997 130.127C67.0074 130.196 67.0107 130.266 67.0107 130.337V134.707C67.0107 135.837 66.0936 136.755 64.9664 136.755H42.6752C41.4937 136.755 40.5357 137.713 40.5357 138.896C40.5357 140.077 41.4937 141.035 42.6752 141.035H64.9664C68.4544 141.035 71.2909 138.196 71.2909 134.707V131.829H121.079C121.259 135.632 124.401 138.67 128.24 138.67H132.153C138.264 138.67 143.236 133.695 143.236 127.58V119.22C143.236 113.838 139.383 109.34 134.292 108.34V78.1585H136.696ZM120.257 100.684L122.649 110.821C121.663 112.05 121.072 113.609 121.072 115.305V127.549H114.985L111.486 107.286C111.053 104.707 109.572 102.763 107.571 101.955V88.9446C114.655 90.7589 118.831 94.6374 120.257 100.684ZM103.291 88.1459V101.545H97.8057V87.6613C98.3113 87.7399 98.8423 87.7908 99.4032 87.8096C100.767 87.8748 102.06 87.9888 103.291 88.1459ZM83.1998 101.545C82.0979 98.9452 79.5226 97.1177 76.5279 97.1177H60.0247V90.5951C64.1068 93.5743 70.0286 94.9051 75.2181 95.1043C75.6717 95.122 76.1341 95.1308 76.6031 95.1308C82.2506 95.1308 88.928 93.8343 93.5256 90.4093V101.545H83.1998ZM72.8695 105.697C73.2213 104.105 73.2677 102.646 73.0199 101.397H76.5279C78.1607 101.397 79.4894 102.728 79.4894 104.364C79.4894 105.995 78.1607 107.322 76.5279 107.322H72.4613C72.6106 106.785 72.7478 106.244 72.8695 105.697ZM100.48 48.0251V53.7931C98.3301 52.8616 95.5656 50.9113 95.1518 46.9885C96.9307 47.2905 98.7074 47.6368 100.48 48.0251ZM58.2524 46.9907C57.8398 50.8261 55.1693 52.7809 53.0154 53.7422V48.0206C54.7578 47.6345 56.5046 47.2916 58.2524 46.9907ZM53.0154 61.5137V58.3044C54.3418 57.8719 56.1528 57.1053 57.8476 55.7966C60.0369 54.1084 62.4861 51.148 62.5912 46.3314C65.8149 45.9066 69.0352 45.6256 72.2312 45.495C73.4127 45.4475 74.3309 44.4507 74.2833 43.2703C74.2346 42.0889 73.2323 41.1751 72.0575 41.2182C68.1225 41.3786 64.1544 41.757 60.1862 42.3455C60.1685 42.3466 60.1508 42.3466 60.1331 42.3488C60.0568 42.3577 59.9826 42.3698 59.9085 42.3853C57.6086 42.7327 55.3087 43.1509 53.0143 43.6398V30.8183C53.0143 30.0793 52.6337 29.3923 52.0054 29.0018C48.9598 27.1045 47.7109 24.5579 48.4919 21.8288C49.3316 18.8894 52.7156 15.9125 57.5577 15.9125H64.567C65.3701 15.9125 66.1058 15.4633 66.472 14.7487C69.0396 9.73843 74.4282 7.89982 78.6331 8.3025C82.6334 8.68527 85.6147 10.9531 86.6082 14.3703C86.8737 15.2841 87.7111 15.9125 88.6636 15.9125H96.2006C101.163 15.9125 104.281 18.9127 105.077 21.6993C105.858 24.4329 104.551 27.0946 101.488 29.0018C100.86 29.3923 100.48 30.0793 100.48 30.8183V43.6409C98.173 43.1564 95.8598 42.7449 93.5466 42.3986C93.4581 42.3776 93.3674 42.3588 93.2745 42.3488C93.2457 42.3455 93.217 42.3455 93.1882 42.3433C89.5829 41.8156 85.9787 41.4528 82.4022 41.268C81.2273 41.2061 80.2151 42.1143 80.1542 43.2947C80.0934 44.4751 81.0016 45.4818 82.182 45.5426C85.045 45.6897 87.9279 45.9608 90.8153 46.338C90.9182 51.3627 93.5588 54.3805 95.9174 56.0786C97.5502 57.2535 99.2406 57.9438 100.48 58.3365V60.403C100.48 66.0184 97.6055 71.5652 92.3873 76.0212C87.7498 79.9794 81.6787 82.6168 76.5456 82.9033C76.4206 82.9099 76.2912 82.9144 76.1573 82.9144C73.1549 82.9133 68.3139 81.1676 63.7539 78.0158C63.6842 77.9605 63.6101 77.9107 63.5349 77.8643C62.235 76.9516 60.9617 75.9239 59.7625 74.7889C56.6849 71.8761 53.0154 67.2076 53.0154 61.5137ZM76.1584 87.1945C76.3697 87.1945 76.5788 87.1879 76.7823 87.1768C81.1665 86.9323 85.9378 85.3393 90.2765 82.7639C90.9071 83.691 91.6859 84.6147 92.6661 85.4134C89.1725 89.4612 81.7683 91.0719 75.3829 90.8275C68.7465 90.573 63.1654 88.4545 60.7316 85.4023C61.7206 84.5926 62.5027 83.6567 63.1366 82.7186C67.6424 85.4853 72.4469 87.1945 76.1584 87.1945ZM53.9801 87.8107C54.604 87.7886 55.1903 87.7266 55.7457 87.6326V97.1177H50.2608V88.1237C51.4401 87.9788 52.678 87.8726 53.9801 87.8107ZM45.9807 88.9015V97.1177H34.407C36.4757 93.0378 40.3045 90.3164 45.9807 88.9015ZM7.23385 107.322C5.60543 107.322 4.28013 105.995 4.28013 104.364C4.28013 102.728 5.60543 101.397 7.23385 101.397H10.744C10.4951 102.646 10.5416 104.105 10.8934 105.697V105.7C11.0151 106.248 11.1533 106.787 11.2994 107.322H7.23385ZM31.0649 124.009C22.8698 120.653 17.0519 113.664 15.0728 104.773C14.71 103.135 14.8803 101.971 15.1912 101.583C15.2365 101.527 15.3405 101.398 15.8085 101.398H31.2751H31.2829H31.2895H67.9533C68.4245 101.398 68.5296 101.527 68.5739 101.583C68.8836 101.969 69.0518 103.131 68.69 104.772C66.7784 113.407 60.8942 120.569 52.9092 124.009H31.0649ZM70.6426 127.549C69.6104 125.453 67.4543 124.009 64.9675 124.009H61.2759C65.4675 120.777 68.7996 116.509 70.9435 111.602H76.5279C80.0215 111.602 82.9442 109.118 83.6224 105.824H105.43C106.858 105.824 107.227 107.772 107.265 108.004L110.642 127.549H70.6426ZM138.955 119.22V127.58C138.955 131.334 135.904 134.39 132.153 134.39H128.241C126.647 134.39 125.351 133.088 125.351 131.487V115.305C125.351 114.421 125.749 113.63 126.374 113.099C126.394 113.083 126.413 113.068 126.431 113.051C126.927 112.651 127.556 112.41 128.24 112.41H132.153C135.904 112.41 138.955 115.465 138.955 119.22ZM123.586 69.8483V51.2122C123.586 48.9908 125.392 47.1832 127.611 47.1832H136.696C138.914 47.1832 140.72 48.9908 140.72 51.2122V69.8483C140.72 72.0708 138.914 73.8784 136.696 73.8784H127.611C125.392 73.8784 123.586 72.0708 123.586 69.8483Z" fill="#282828"/>
</g>
<defs>
<clipPath id="clip0">
<rect width="145" height="145" fill="white"/>
</clipPath>
</defs>
</svg>
