<svg width="100" height="100" viewBox="0 0 136 136" fill="none" xmlns="http://www.w3.org/2000/svg">
<path d="M107.844 112.094H44.0938C41.8968 112.094 40.1094 110.306 40.1094 108.109C40.1094 105.912 41.8968 104.125 44.0938 104.125H117.755L136 40.375H33.4807L31.7943 33.5261L31.7913 33.5269C30.5046 28.3148 25.7914 24.4375 20.1875 24.4375H11.9531C5.36217 24.4375 0 29.7997 0 36.3906H7.96875C7.96875 34.1936 9.75614 32.4062 11.9531 32.4062H20.1875C22.3845 32.4062 24.1719 34.1936 24.1719 36.3906H24.293L39.2615 97.1805C35.0715 99.0404 32.1406 103.238 32.1406 108.109C32.1406 114.7 37.5028 120.062 44.0938 120.062H48.7634C48.3212 121.31 48.0781 122.65 48.0781 124.047C48.0781 130.638 53.4403 136 60.0312 136C66.6222 136 71.9844 130.638 71.9844 124.047C71.9844 122.65 71.7413 121.31 71.2991 120.062H96.5762C96.1339 121.31 95.8909 122.65 95.8909 124.047C95.8909 130.638 101.253 136 107.844 136C114.435 136 119.797 130.638 119.797 124.047C119.797 117.456 114.435 112.094 107.844 112.094ZM125.436 48.3438L111.745 96.1562H47.2162L35.4431 48.3438H125.436ZM64.0156 124.047C64.0156 126.244 62.2282 128.031 60.0312 128.031C57.8343 128.031 56.0469 126.244 56.0469 124.047C56.0469 121.85 57.8343 120.062 60.0312 120.062C62.2282 120.062 64.0156 121.85 64.0156 124.047ZM107.844 128.031C105.647 128.031 103.859 126.244 103.859 124.047C103.859 121.85 105.647 120.062 107.844 120.062C110.041 120.062 111.828 121.85 111.828 124.047C111.828 126.244 110.041 128.031 107.844 128.031Z" fill="#282828"/>
<path d="M75.9688 0H83.9375V15.9375H75.9688V0Z" fill="#282828"/>
<path d="M46.1379 15.6586L51.7718 10.0247L63.0397 21.2925L57.4058 26.9264L46.1379 15.6586Z" fill="#282828"/>
<path d="M96.8459 21.2984L108.114 10.0306L113.748 15.6645L102.48 26.9323L96.8459 21.2984Z" fill="#282828"/>
</svg>
