<svg width="14" height="18" viewBox="0 0 16 24" fill="none" xmlns="http://www.w3.org/2000/svg">
<path d="M13.625 0.75H2.375C1.77847 0.75067 1.20656 0.987938 0.78475 1.40975C0.362938 1.83156 0.12567 2.40347 0.125 3V21.75C0.125447 22.1477 0.283625 22.529 0.564833 22.8102C0.846041 23.0914 1.22731 23.2496 1.625 23.25H14.375C14.7727 23.2496 15.154 23.0914 15.4352 22.8102C15.7164 22.529 15.8746 22.1477 15.875 21.75V3C15.8743 2.40347 15.6371 1.83156 15.2153 1.40975C14.7934 0.987938 14.2215 0.75067 13.625 0.75ZM14.375 21.75H1.625V11.25H14.375V21.75ZM14.375 9.75H1.625V3C1.62524 2.80116 1.70433 2.61053 1.84493 2.46993C1.98553 2.32933 2.17616 2.25024 2.375 2.25H13.625C13.8238 2.25024 14.0145 2.32933 14.1551 2.46993C14.2957 2.61053 14.3748 2.80116 14.375 3V9.75Z" fill="#282828"/>
<path d="M2.75 13.125H4.25V17.625H2.75V13.125Z" fill="#282828"/>
<path d="M2.75 4.875H4.25V7.875H2.75V4.875Z" fill="#282828"/>
</svg>
