<svg width="126" height="111" viewBox="0 0 126 111" fill="none" xmlns="http://www.w3.org/2000/svg">
<path d="M31.3154 50.6191C32.292 50.6191 33.1904 50.7656 34.0107 51.0586C34.8506 51.332 35.5244 51.7129 36.0322 52.2012V56.1562C35.5244 55.8438 34.9482 55.5508 34.3037 55.2773C33.6592 54.9844 32.9658 54.8379 32.2236 54.8379C31.7549 54.8379 31.335 54.9355 30.9639 55.1309C30.6123 55.3066 30.4365 55.5898 30.4365 55.9805C30.4365 56.2539 30.5439 56.459 30.7588 56.5957C30.9736 56.7324 31.3936 56.8789 32.0186 57.0352L32.9268 57.2695C35.5244 57.9336 36.8232 59.3301 36.8232 61.459C36.8232 62.4355 36.5303 63.3047 35.9443 64.0664C35.3779 64.8086 34.626 65.3945 33.6885 65.8242C32.7705 66.2344 31.7744 66.4395 30.7002 66.4395C29.5869 66.4395 28.5518 66.2832 27.5947 65.9707C26.6377 65.6387 25.8174 65.2383 25.1338 64.7695V60.8438C25.8369 61.2734 26.6279 61.6348 27.5068 61.9277C28.4053 62.2207 29.2061 62.3672 29.9092 62.3672C30.4756 62.3672 30.8857 62.2988 31.1396 62.1621C31.4131 62.0254 31.5498 61.7812 31.5498 61.4297C31.5498 61.1562 31.3936 60.9512 31.0811 60.8145C30.7686 60.6582 30.3193 60.4824 29.7334 60.2871L28.2393 59.8184C27.1455 59.4863 26.3447 58.9688 25.8369 58.2656C25.3291 57.543 25.0752 56.6641 25.0752 55.6289C25.0752 54.5938 25.3486 53.7051 25.8955 52.9629C26.4424 52.2207 27.1846 51.6445 28.1221 51.2344C29.0791 50.8242 30.1436 50.6191 31.3154 50.6191ZM46.3154 50.6191C47.4678 50.6191 48.3467 50.8047 48.9521 51.1758C49.5771 51.5273 50.1436 51.8984 50.6514 52.2891V56.6836C50.2021 56.3516 49.6846 56.0879 49.0986 55.8926C48.5322 55.6973 47.8291 55.5996 46.9893 55.5996C46.54 55.5996 46.0713 55.7168 45.583 55.9512C45.0947 56.1855 44.6846 56.5273 44.3525 56.9766C44.0205 57.4062 43.8545 57.9531 43.8545 58.6172C43.8545 59.5938 44.167 60.3359 44.792 60.8438C45.417 61.3516 46.1494 61.6055 46.9893 61.6055C47.8291 61.6055 48.5322 61.5078 49.0986 61.3125C49.6846 61.0977 50.2021 60.834 50.6514 60.5215V64.916C50.1436 65.3066 49.5771 65.6582 48.9521 65.9707C48.3467 66.2832 47.4678 66.4395 46.3154 66.4395C45.2021 66.4395 44.167 66.2344 43.21 65.8242C42.2529 65.3945 41.4131 64.8184 40.6904 64.0957C39.9873 63.3535 39.4307 62.5137 39.0205 61.5762C38.6299 60.6387 38.4346 59.6523 38.4346 58.6172C38.4346 57.582 38.6299 56.5859 39.0205 55.6289C39.4307 54.6719 39.9873 53.8223 40.6904 53.0801C41.4131 52.3184 42.2529 51.7227 43.21 51.293C44.167 50.8438 45.2021 50.6191 46.3154 50.6191ZM60.4658 50.6191C61.501 50.6191 62.5068 50.8145 63.4834 51.2051C64.46 51.5957 65.3389 52.1426 66.1201 52.8457C66.9014 53.5488 67.5166 54.3887 67.9658 55.3652C68.4346 56.3223 68.6689 57.377 68.6689 58.5293C68.6689 59.6816 68.4346 60.7461 67.9658 61.7227C67.5166 62.6797 66.9014 63.5098 66.1201 64.2129C65.3389 64.916 64.46 65.4629 63.4834 65.8535C62.5068 66.2441 61.501 66.4395 60.4658 66.4395C59.4307 66.4395 58.4248 66.2441 57.4482 65.8535C56.4717 65.4629 55.5928 64.916 54.8115 64.2129C54.0303 63.5098 53.4053 62.6797 52.9365 61.7227C52.4873 60.7461 52.2627 59.6816 52.2627 58.5293C52.2627 57.377 52.4873 56.3223 52.9365 55.3652C53.4053 54.3887 54.0303 53.5488 54.8115 52.8457C55.5928 52.1426 56.4717 51.5957 57.4482 51.2051C58.4248 50.8145 59.4307 50.6191 60.4658 50.6191ZM60.4658 55.4531C60.1143 55.4531 59.7139 55.5312 59.2646 55.6875C58.835 55.8438 58.4639 56.1465 58.1514 56.5957C57.8389 57.0254 57.6826 57.6699 57.6826 58.5293C57.6826 59.3691 57.8389 60.0137 58.1514 60.4629C58.4639 60.9121 58.835 61.2148 59.2646 61.3711C59.7139 61.5273 60.1143 61.6055 60.4658 61.6055C60.8369 61.6055 61.2373 61.5273 61.667 61.3711C62.0967 61.2148 62.4678 60.9121 62.7803 60.4629C63.0928 60.0137 63.249 59.3691 63.249 58.5293C63.249 57.6699 63.0928 57.0254 62.7803 56.5957C62.4678 56.1465 62.0967 55.8438 61.667 55.6875C61.2373 55.5312 60.8369 55.4531 60.4658 55.4531ZM85.8955 51.0586V60.0234C85.8955 61.3711 85.583 62.5234 84.958 63.4805C84.3525 64.4375 83.5127 65.1699 82.4385 65.6777C81.3643 66.1855 80.1338 66.4395 78.7471 66.4395C77.3604 66.4395 76.1299 66.1855 75.0557 65.6777C73.9814 65.1699 73.1318 64.4375 72.5068 63.4805C71.9014 62.5234 71.5986 61.3711 71.5986 60.0234V51.0586H76.6377L76.667 58.6758C76.667 59.6914 76.8232 60.4336 77.1357 60.9023C77.4678 61.3711 78.0049 61.6055 78.7471 61.6055C79.4893 61.6055 80.0166 61.3711 80.3291 60.9023C80.6611 60.4336 80.8271 59.6914 80.8271 58.6758L80.8564 51.0586H85.8955ZM96.5303 46.6641V51.0586H100.456V55.0137H96.5303V59.2031C96.5303 59.9258 96.6768 60.502 96.9697 60.9316C97.2822 61.3418 97.7119 61.5469 98.2588 61.5469C99.1182 61.5469 99.9092 61.332 100.632 60.9023V64.8281C100.319 65.2578 99.8213 65.6387 99.1377 65.9707C98.4736 66.2832 97.6533 66.4395 96.6768 66.4395C95.7393 66.4395 94.8799 66.2246 94.0986 65.7949C93.3174 65.3652 92.6826 64.75 92.1943 63.9492C91.7256 63.1484 91.4912 62.1816 91.4912 61.0488V55.0137H88.9717V51.9375C89.9287 51.6836 90.8662 51.1367 91.7842 50.2969C92.7217 49.4375 93.4053 48.2266 93.835 46.6641H96.5303Z" fill="#3D806D"/>
<path d="M118.321 42.4411L117.56 27.7498L103.499 19.8232L94.5 7.43555L77.8231 6.76295L63 0L48.1769 6.76448L31.5 7.43707L22.5006 19.8232L8.44033 27.7498L7.67893 42.4411L0 55.4998L7.67893 68.5589L8.44241 83.2499L22.5006 91.1765L31.4986 103.564L48.1756 104.236L63 111L77.8231 104.236L94.5 103.564L103.498 91.1765L117.559 83.2511L118.321 68.5601L126 55.5011L118.321 42.4411ZM107.339 65.9664L106.727 77.7411L95.4568 84.094L88.2453 94.0225L74.8791 94.5605L63 99.982L51.1195 94.5605L37.7533 94.0225L30.5418 84.094L19.2731 77.7411L18.6627 65.9664L12.5059 55.4998L18.6613 45.0355L19.2731 33.2589L30.5418 26.906L37.7533 16.9778L51.1195 16.4398L63 11.018L74.8805 16.4395L88.2467 16.9775L95.4582 26.9057L106.727 33.2589L107.337 45.0339L113.494 55.4998L107.339 65.9664Z" fill="#E8C379"/>
</svg>
