<svg width="18" height="20" viewBox="0 0 18 20" fill="none" xmlns="http://www.w3.org/2000/svg">
<path d="M9 0C6.09223 0 3.72656 2.36566 3.72656 5.27344C3.72656 8.18121 6.09223 10.5469 9 10.5469C11.9078 10.5469 14.2734 8.18121 14.2734 5.27344C14.2734 2.36566 11.9078 0 9 0Z" fill="#282828"/>
<path d="M15.5612 13.992C14.1174 12.5261 12.2035 11.7188 10.1719 11.7188H7.82812C5.79656 11.7188 3.88258 12.5261 2.43883 13.992C1.00215 15.4507 0.210938 17.3763 0.210938 19.4141C0.210938 19.7377 0.473281 20 0.796875 20H17.2031C17.5267 20 17.7891 19.7377 17.7891 19.4141C17.7891 17.3763 16.9979 15.4507 15.5612 13.992Z" fill="#282828"/>
</svg>
