<svg width="20" height="24" viewBox="0 0 20 20" fill="none" xmlns="http://www.w3.org/2000/svg">
<path d="M5.45453 9.54546C5.45453 9.29421 5.25122 9.0909 4.99997 9.0909C4.74872 9.0909 4.54541 9.29421 4.54541 9.54546C4.54541 10.7391 5.862 12.3779 6.01204 12.5613C6.10217 12.6705 6.23266 12.7273 6.36403 12.7273C6.46524 12.7273 6.56734 12.6935 6.6521 12.6243C6.84608 12.4649 6.87403 12.1786 6.71513 11.9842C6.2278 11.3903 5.45453 10.2033 5.45453 9.54546Z" fill="#282828"/>
<path d="M15 9.0909C14.7487 9.0909 14.5454 9.29421 14.5454 9.54546C14.5454 10.2011 13.7722 11.3894 13.2848 11.9847C13.1259 12.1786 13.1543 12.465 13.3483 12.6243C13.4326 12.6935 13.5347 12.7273 13.6363 12.7273C13.7677 12.7273 13.8978 12.6705 13.9879 12.5613C14.1379 12.3779 15.4545 10.7391 15.4545 9.54546C15.4545 9.29421 15.2512 9.0909 15 9.0909Z" fill="#282828"/>
<path d="M10 9.0909C9.74878 9.0909 9.54547 9.29421 9.54547 9.54546V12.2727C9.54547 12.524 9.74878 12.7273 10 12.7273C10.2513 12.7273 10.4546 12.524 10.4546 12.2727V9.54546C10.4545 9.29421 10.2512 9.0909 10 9.0909Z" fill="#282828"/>
<path d="M15 1.8182C14.7246 1.8182 14.4367 1.85463 14.1378 1.91016C13.1366 0.74314 11.6547 0 10 0C8.34537 0 6.86336 0.74314 5.86228 1.91012C5.5633 1.85463 5.27544 1.81815 5.00003 1.81815C2.24297 1.8182 0 4.06117 0 6.81819C0 8.70738 1.06534 10.4248 2.73793 11.274L2.72906 18.1432C2.72864 18.639 2.92125 19.1051 3.27149 19.4558C3.62216 19.8069 4.0878 20 4.58365 20H15.4182C16.4409 20 17.2728 19.1681 17.2728 18.1454V11.2673C18.9391 10.4159 20 8.70116 20 6.81819C20 4.06117 17.757 1.8182 15 1.8182ZM16.3636 18.1455C16.3636 18.6666 15.9393 19.091 15.4181 19.091H4.58361C4.33104 19.091 4.09355 18.9924 3.91466 18.8136C3.7362 18.6347 3.63767 18.3972 3.6381 18.1442L3.64049 16.3636H16.3636V18.1455ZM16.6451 10.5598C16.6211 10.5695 16.5984 10.5811 16.5771 10.5948C16.5199 10.6303 16.4728 10.6774 16.4378 10.7315C16.4023 10.7852 16.3783 10.8474 16.3685 10.914C16.3645 10.9393 16.3632 10.9646 16.3636 10.9903V15.4545H3.64164L3.64747 10.9965C3.6479 10.9717 3.64658 10.9463 3.64304 10.9219C3.63328 10.8531 3.60797 10.7892 3.57111 10.7337C3.53647 10.6818 3.49121 10.6365 3.43615 10.6019C3.41352 10.5877 3.38953 10.5752 3.36469 10.565C1.87279 9.91258 0.909077 8.44326 0.909077 6.81819C0.909077 4.5623 2.74415 2.72727 4.99999 2.72727C5.08816 2.72727 5.18122 2.73793 5.27255 2.74513C4.81266 3.54439 4.54543 4.468 4.54543 5.45455C4.54543 5.7058 4.74874 5.90911 4.99999 5.90911C5.25124 5.90911 5.45455 5.7058 5.45455 5.45455C5.45455 2.94831 7.49378 0.909077 10 0.909077C12.5063 0.909077 14.5454 2.94831 14.5454 5.45455C14.5454 5.7058 14.7488 5.90911 15 5.90911C15.2513 5.90911 15.4546 5.7058 15.4546 5.45455C15.4546 4.468 15.1873 3.54443 14.7275 2.74513C14.8188 2.73793 14.9118 2.72727 15 2.72727C17.2559 2.72727 19.0909 4.56235 19.0909 6.81819C19.0909 8.43751 18.1312 9.90499 16.6451 10.5598Z" fill="#282828"/>
</svg>
