<svg width="20" height="20" viewBox="0 0 20 20" fill="none" xmlns="http://www.w3.org/2000/svg">
<path d="M10 0C8.02218 0 6.08879 0.58649 4.44429 1.6853C2.7998 2.78412 1.51808 4.3459 0.761202 6.17317C0.00432521 8.00043 -0.193708 10.0111 0.192144 11.9509C0.577996 13.8907 1.5304 15.6725 2.92893 17.0711C4.32745 18.4696 6.10928 19.422 8.04909 19.8079C9.9889 20.1937 11.9996 19.9957 13.8268 19.2388C15.6541 18.4819 17.2159 17.2002 18.3147 15.5557C19.4135 13.9112 20 11.9778 20 10C20 8.68678 19.7413 7.38642 19.2388 6.17317C18.7362 4.95991 17.9996 3.85752 17.0711 2.92893C16.1425 2.00035 15.0401 1.26375 13.8268 0.761205C12.6136 0.258658 11.3132 0 10 0ZM10 18C8.41775 18 6.87103 17.5308 5.55543 16.6518C4.23984 15.7727 3.21446 14.5233 2.60896 13.0615C2.00346 11.5997 1.84503 9.99113 2.15371 8.43928C2.4624 6.88743 3.22432 5.46197 4.34314 4.34315C5.46196 3.22433 6.88743 2.4624 8.43927 2.15372C9.99112 1.84504 11.5997 2.00346 13.0615 2.60896C14.5233 3.21447 15.7727 4.23984 16.6518 5.55544C17.5308 6.87103 18 8.41775 18 10C18 12.1217 17.1571 14.1566 15.6569 15.6569C14.1566 17.1571 12.1217 18 10 18Z" fill="#27201E"/>
<path d="M12.71 7.29C12.617 7.19627 12.5064 7.12188 12.3846 7.07111C12.2627 7.02034 12.132 6.9942 12 6.9942C11.868 6.9942 11.7373 7.02034 11.6154 7.07111C11.4936 7.12188 11.383 7.19627 11.29 7.29L10 8.59L8.71 7.29C8.5217 7.1017 8.2663 6.99591 8 6.99591C7.7337 6.99591 7.4783 7.1017 7.29 7.29C7.1017 7.4783 6.99591 7.7337 6.99591 8C6.99591 8.2663 7.1017 8.5217 7.29 8.71L8.59 10L7.29 11.29C7.19627 11.383 7.12188 11.4936 7.07111 11.6154C7.02034 11.7373 6.9942 11.868 6.9942 12C6.9942 12.132 7.02034 12.2627 7.07111 12.3846C7.12188 12.5064 7.19627 12.617 7.29 12.71C7.38296 12.8037 7.49356 12.8781 7.61542 12.9289C7.73728 12.9797 7.86799 13.0058 8 13.0058C8.13201 13.0058 8.26272 12.9797 8.38458 12.9289C8.50644 12.8781 8.61704 12.8037 8.71 12.71L10 11.41L11.29 12.71C11.383 12.8037 11.4936 12.8781 11.6154 12.9289C11.7373 12.9797 11.868 13.0058 12 13.0058C12.132 13.0058 12.2627 12.9797 12.3846 12.9289C12.5064 12.8781 12.617 12.8037 12.71 12.71C12.8037 12.617 12.8781 12.5064 12.9289 12.3846C12.9797 12.2627 13.0058 12.132 13.0058 12C13.0058 11.868 12.9797 11.7373 12.9289 11.6154C12.8781 11.4936 12.8037 11.383 12.71 11.29L11.41 10L12.71 8.71C12.8037 8.61704 12.8781 8.50644 12.9289 8.38458C12.9797 8.26272 13.0058 8.13201 13.0058 8C13.0058 7.86799 12.9797 7.73728 12.9289 7.61542C12.8781 7.49356 12.8037 7.38296 12.71 7.29Z" fill="#27201E"/>
</svg>
