<svg width="60" height="60" viewBox="0 0 80 80" fill="none" xmlns="http://www.w3.org/2000/svg">
<path d="M76.0858 1.4564C77.3905 1.79908 78.3586 2.39877 78.9899 3.25547C79.6633 4.11217 80 5.11166 80 6.25393C80 8.13867 79.6002 9.5094 78.8005 10.3661C78.0429 11.2228 76.8224 11.5655 75.1388 11.3941C71.3509 10.9944 68.3837 10.7373 66.2372 10.6231C64.1328 10.4518 61.355 10.3375 57.9038 10.2804C56.3465 20.7893 54.9156 31.3553 53.6108 41.9784C53.1479 45.8621 52.6638 50.3741 52.1588 55.5143C51.6537 60.5974 51.317 64.7096 51.1487 67.8508C51.0645 69.5071 50.5594 70.7922 49.6335 71.706C48.7076 72.5627 47.5922 72.9911 46.2875 72.9911C44.8986 72.9911 43.8254 72.5341 43.0678 71.6203C42.3102 70.7065 41.9314 69.5071 41.9314 68.0222C41.9314 66.6515 42.0787 64.3955 42.3733 61.2542C42.71 58.0559 43.0888 54.7147 43.5097 51.2308C43.9727 47.7469 44.3304 44.7199 44.5829 42.1498C45.0459 37.8091 45.572 33.4971 46.1612 29.2136C46.7505 24.93 47.3397 20.875 47.9289 17.0484C48.0552 16.1917 48.2025 15.2207 48.3709 14.1356C48.5392 12.9933 48.7286 11.7368 48.9391 10.3661C44.8144 10.5374 41.5737 10.9943 39.2167 11.7368C36.8598 12.4793 35.1763 13.5359 34.1662 14.9066C33.1981 16.2202 32.7141 17.9336 32.7141 20.0468C32.7141 21.9887 33.135 23.8449 33.9768 25.6154C34.1451 26.0152 34.2293 26.4436 34.2293 26.9005C34.2293 27.9856 33.7453 29.0137 32.7773 29.9846C31.8513 30.8984 30.8833 31.3553 29.8732 31.3553C29.1577 31.3553 28.5685 31.0697 28.1055 30.4986C27.2637 29.5277 26.5693 28.157 26.0221 26.3864C26.0221 26.3864 25.2014 22.5027 25.2014 20.2182C25.2014 15.3635 26.3588 11.4798 28.6737 8.56703C31.0306 5.59713 34.587 3.42681 39.343 2.05609C44.141 0.685363 50.2859 0 57.7775 0C62.4072 0 66.0899 0.114227 68.8256 0.342682C71.6034 0.571136 74.0235 0.942374 76.0858 1.4564Z" fill="#4a5666"/>
<path d="M49.1296 45.9329C49.3457 45.8505 49.67 45.8093 50.1024 45.8093C51.3275 45.8093 51.94 46.7161 51.94 48.5297C51.94 49.5189 51.7419 50.3639 51.3455 51.0646C50.9852 51.7241 50.4087 52.1363 49.616 52.3012C46.3371 53.0019 43.1122 53.785 39.9414 54.6506L39.7793 56.1345C38.7704 64.2545 36.7526 70.2518 33.7259 74.1264C30.7352 78.0421 26.9879 80 22.4839 80C19.4933 80 17.1692 79.155 15.5118 77.4651C13.8903 75.8163 13.0796 73.6936 13.0796 71.0968C13.0796 66.7689 14.7731 62.9149 18.1601 59.535C21.5471 56.1551 26.6817 53.1668 33.5638 50.57L34.6447 41.8523C34.7888 40.8631 34.969 39.5441 35.1852 37.8953C33.4917 43.0064 31.3298 46.8191 28.6994 49.3335C26.0691 51.8478 23.1325 53.1049 19.8896 53.1049C16.7909 53.1049 14.4308 52.0333 12.8094 49.8899C11.1879 47.7053 10.3772 44.9025 10.3772 41.4813C10.3772 39.9562 10.5213 38.2869 10.8096 36.4733C11.0978 34.6185 11.5482 32.1247 12.1608 28.9921C12.7013 26.1481 13.0976 23.881 13.3498 22.1911C13.6381 20.5011 13.7822 18.9967 13.7822 17.6777C13.7822 15.6992 13.1156 14.7099 11.7824 14.7099C10.7375 14.7099 9.49442 15.3076 8.05314 16.5029C6.64789 17.657 5.15257 19.4501 3.56716 21.8819C3.06272 22.6651 2.50422 23.0567 1.89168 23.0567C1.38723 23.0567 0.93683 22.7888 0.540479 22.2529C0.18016 21.6759 0 21.037 0 20.3363C0 19.0585 0.504447 17.6158 1.51334 16.0083C5.1886 10.2377 9.49442 7.35243 14.4308 7.35243C16.6287 7.35243 18.3403 8.11497 19.5653 9.64006C20.8265 11.1651 21.457 13.4115 21.457 16.3793C21.457 18.5226 21.2769 20.7278 20.9165 22.9948C20.5923 25.2206 20.0878 28.0647 19.4032 31.5271C18.9708 33.588 18.6465 35.2573 18.4303 36.5351C18.2141 37.7717 18.1061 38.8021 18.1061 39.6265C18.1061 41.7286 18.4303 43.2331 19.0789 44.1399C19.7275 45.0467 20.8625 45.5001 22.4839 45.5001C24.4297 45.5001 26.4114 44.2842 28.4292 41.8523C30.483 39.3792 32.3206 35.6489 33.9421 30.6615C35.5996 25.674 36.7886 19.5737 37.5093 12.3605C37.6894 10.5469 38.1038 9.26909 38.7523 8.52716C39.4009 7.74401 40.3378 7.35243 41.5628 7.35243C44.0851 7.35243 45.3462 8.79508 45.3462 11.6804C45.3462 12.175 45.3282 12.5666 45.2921 12.8551C44.5355 18.9967 43.8329 24.5405 43.1843 29.4868C42.824 32.4545 42.4276 35.5047 41.9952 38.6373C41.5989 41.7699 41.2025 44.9437 40.8062 48.1587C43.4365 47.3344 46.211 46.5924 49.1296 45.9329ZM32.753 57.0619C24.0333 60.5243 19.6734 64.7286 19.6734 69.6748C19.6734 70.8289 19.9797 71.7769 20.5923 72.5189C21.2408 73.302 22.1416 73.6936 23.2946 73.6936C28.3031 73.6936 31.4379 68.294 32.699 57.4947L32.753 57.0619Z" fill="#4a5666"/>
</svg>
